<svg version="1.1" xmlns="http://www.w3.org/2000/svg" xmlns:xlink="http://www.w3.org/1999/xlink" width="512" height="512" viewBox="0,0,512,512"><g id="Layer 4" fill="none" fill-rule="nonzero" stroke="none" stroke-width="0" stroke-linecap="butt" stroke-linejoin="miter" stroke-miterlimit="10" stroke-dasharray="" stroke-dashoffset="0" font-family="none" font-weight="none" font-size="none" text-anchor="none" style="mix-blend-mode: normal"><path d="M359.383,379.3229c-7.15,7.15 -18.7425,7.15 -25.8924,0l-13.4746,-13.4746c-22.0765,9.0363 -48.3755,4.5927 -66.2991,-13.3309l-78.8692,-79.6417c-0.6581,-0.6581 -1.1839,-1.3985 -1.5773,-2.188l22.7827,23.5864c3.2547,3.2547 90.3942,-83.8499 88.1098,-88.005l57.6189,58.1833c17.9236,17.9236 22.3673,44.2226 13.3309,66.2991l13.4746,13.4746c7.15,7.15 7.15,18.7425 0,25.8925z" fill="#818181"/><path d="M196.053,294.274l-41.7766,-43.2503c-3.2723,-3.2723 -3.2723,-8.5776 0,-11.8498l8.2905,-8.2905c3.2723,-3.2723 3.2723,-8.5776 0,-11.8499l-45.8999,-45.8998c-3.2722,-3.2723 -3.2722,-8.5776 0,-11.8499l35.9345,-35.9345c3.2723,-3.2722 8.5776,-3.2722 11.8498,0l45.8999,45.8999c3.2723,3.2723 8.5776,3.2723 11.8499,0l8.2905,-8.2905c3.2723,-3.2723 8.5776,-3.2723 11.8499,0l41.7766,43.2503c3.2722,3.2723 -84.7927,91.3372 -88.065,88.065z" fill="#2b2b2b"/></g></svg>