<svg version="1.1" xmlns="http://www.w3.org/2000/svg" xmlns:xlink="http://www.w3.org/1999/xlink" width="512" height="512" viewBox="0,0,512,512"><g id="Layer 3" fill="none" fill-rule="nonzero" stroke="none" stroke-width="0" stroke-linecap="butt" stroke-linejoin="miter" stroke-miterlimit="10" stroke-dasharray="" stroke-dashoffset="0" font-family="none" font-weight="none" font-size="none" text-anchor="none" style="mix-blend-mode: normal"><path d="M373.1782,113.9879c39.998,17.1889 49.191,48.8798 38.3933,87.3558c-12.8854,41.5451 -35.8975,54.3968 -53.5592,82.0445c6.261,11.4812 11.3607,16.0415 17.8885,32.8034c6.5278,16.762 10.3802,41.1085 -14.9781,63.0852c-34.3604,25.7406 -77.4542,-13.2719 -104.9227,-66.5665c-27.4685,53.2946 -70.5623,92.3071 -104.9227,66.5665c-25.3583,-21.9766 -21.5059,-46.3232 -14.9781,-63.0851c6.5278,-16.762 11.6275,-21.3222 17.8885,-32.8034c-17.6616,-27.6477 -40.6737,-40.4994 -53.5592,-82.0445c-10.7978,-38.476 -1.6047,-70.1669 38.3933,-87.3558c46.0908,-12.7782 89.6354,35.0453 117.1782,84.695c27.5428,-49.6497 71.0874,-97.4732 117.1782,-84.695z" fill="#818181"/><path d="M275.7132,85.0065c-0.6012,30.8639 -8.7606,48.2083 -19.7132,47.2213c-10.9526,0.9871 -19.112,-16.3573 -19.7132,-47.2213l0,0c-0.6865,-35.2403 6.4883,-55.2972 19.7132,-56.7632c13.2249,1.466 20.3996,21.5229 19.7132,56.7632z" data-paper-data="{&quot;emfKeyframeFrame&quot;:0}" fill="#2b2b2b"/><path d="M236.2717,202.386l0,0c-0.6866,-35.247 6.491,-55.3049 19.7207,-56.764c13.2297,1.4592 20.4073,21.5171 19.7207,56.764l0,0c-0.6013,30.871 -8.7643,48.2163 -19.7207,47.2206c-10.9564,0.9957 -19.1194,-16.3495 -19.7207,-47.2206z" data-paper-data="{&quot;emfKeyframeFrame&quot;:0}" fill="#2b2b2b"/><path d="M275.7132,435.7634l0,0c-0.6013,30.871 -8.7643,48.2163 -19.7207,47.2206c-10.9564,0.9957 -19.1194,-16.3496 -19.7207,-47.2206l0,0c-0.6866,-35.247 6.491,-55.3049 19.7207,-56.764c13.2297,1.4592 20.4073,21.5171 19.7207,56.764z" data-paper-data="{&quot;emfKeyframeFrame&quot;:0}" fill="#2b2b2b"/><path d="M275.7132,318.3838c-0.6013,30.871 -8.7643,48.2163 -19.7207,47.2206c-10.9564,0.9957 -19.1194,-16.3495 -19.7207,-47.2206l0,0c-0.6866,-35.247 6.491,-55.3049 19.7207,-56.764c13.2297,1.4592 20.4073,21.5171 19.7207,56.764z" data-paper-data="{&quot;emfKeyframeFrame&quot;:0}" fill="#2b2b2b"/></g></svg>